<?xml version="1.0" encoding="UTF-8" standalone="no"?>
<!-- Created with Inkscape (http://www.inkscape.org/) -->

<svg
   xmlns:dc="http://purl.org/dc/elements/1.1/"
   xmlns:cc="http://creativecommons.org/ns#"
   xmlns:rdf="http://www.w3.org/1999/02/22-rdf-syntax-ns#"
   xmlns:svg="http://www.w3.org/2000/svg"
   xmlns="http://www.w3.org/2000/svg"
   xmlns:sodipodi="http://sodipodi.sourceforge.net/DTD/sodipodi-0.dtd"
   xmlns:inkscape="http://www.inkscape.org/namespaces/inkscape"
   width="210mm"
   height="297mm"
   viewBox="0 0 744.09448819 1052.3622047"
   id="svg2"
   version="1.1"
   inkscape:version="0.91 r13725"
   sodipodi:docname="skyrim.svg">
  <defs
     id="defs4" />
  <sodipodi:namedview
     id="base"
     pagecolor="#ffffff"
     bordercolor="#666666"
     borderopacity="1.0"
     inkscape:pageopacity="0.0"
     inkscape:pageshadow="2"
     inkscape:zoom="0.7"
     inkscape:cx="103.14636"
     inkscape:cy="529.83055"
     inkscape:document-units="px"
     inkscape:current-layer="layer1"
     showgrid="false"
     inkscape:window-width="1920"
     inkscape:window-height="1058"
     inkscape:window-x="0"
     inkscape:window-y="22"
     inkscape:window-maximized="1" />
  <metadata
     id="metadata7">
    <rdf:RDF>
      <cc:Work
         rdf:about="">
        <dc:format>image/svg+xml</dc:format>
        <dc:type
           rdf:resource="http://purl.org/dc/dcmitype/StillImage" />
        <dc:title></dc:title>
      </cc:Work>
    </rdf:RDF>
  </metadata>
  <g
     inkscape:label="Layer 1"
     inkscape:groupmode="layer"
     id="layer1">
    <path
       style="fill:#000000"
       d="m 378.74135,973.34116 c -1.90767,-4.22497 -9.41209,-20.67932 -16.67647,-36.56523 -28.62512,-62.59793 -29.82628,-66.0366 -25.79397,-73.84516 1.19342,-2.31091 6.97883,-11.39178 12.85667,-20.17972 13.13959,-19.64507 14.749,-22.71516 14.749,-28.13506 0,-2.56719 -2.99844,-11.10595 -7.46653,-21.26272 -4.46351,-10.14613 -7.73477,-19.45995 -8.13332,-23.15663 -0.61841,-5.73665 -0.11275,-7.29231 6.98984,-21.50896 4.21114,-8.42878 11.85991,-22.79174 16.99728,-31.91769 13.35119,-23.71679 14.90095,-27.94047 14.93608,-40.70603 0.0157,-5.82642 -0.81768,-15.50546 -1.85273,-21.50896 -2.96685,-17.20858 -10.13735,-43.40548 -14.08956,-51.47523 -7.48083,-15.27492 -20.36175,-28.0926 -37.0588,-36.87677 -4.49288,-2.36364 -8.43315,-4.29753 -8.75619,-4.29753 -0.32304,0 -0.51877,7.32841 -0.43473,16.28535 0.15142,16.16817 -1.00818,27.96166 -2.74961,27.96166 -0.49924,0 -1.61597,-3.42867 -2.4815,-7.61926 -4.02445,-19.48431 -15.55122,-34.62521 -32.71788,-42.97626 l -9.83267,-4.78329 -0.81742,21.23672 c -0.49491,12.86023 -2.0705,29.1659 -3.99455,41.33946 -1.74747,11.05649 -3.17714,21.57672 -3.17714,23.37828 0,4.28046 9.24599,19.98947 16.54091,28.10316 6.92404,7.7013 22.43317,18.34458 28.34798,19.45421 l 4.27445,0.80189 0,72.62495 c 0,39.94373 -0.46869,72.09953 -1.04147,71.45733 -0.57292,-0.64219 -12.81459,-26.8862 -27.20372,-58.32001 C 275.76605,739.41586 252.94351,689.63798 239.4384,660.23215 225.93343,630.82632 208.93747,593.76946 201.66955,577.88356 175.77319,521.27973 155.0926,476.28412 148.90234,463.07541 l -6.28412,-13.40877 41.32618,-89.83424 c 22.72932,-49.40884 44.52206,-96.74785 48.42825,-105.1978 17.04932,-36.88121 59.18256,-128.44316 71.52322,-155.431053 17.1344,-37.471261 15.53063,-34.57769 17.86936,-32.238892 1.43492,1.434875 2.02711,5.577954 2.43641,17.043291 0.62286,17.450384 1.5491,21.227024 7.48331,30.511144 3.86162,6.04155 7.60996,15.35348 7.60996,18.9052 0,0.71904 -2.35066,-1.25545 -5.22363,-4.38778 -2.87298,-3.13232 -7.15937,-6.32131 -9.52537,-7.08663 -3.92953,-1.27108 -4.52997,-1.12799 -6.93858,1.6533 -5.13607,5.93065 -15.68062,42.5473 -32.77819,113.82425 -14.1024,58.7907 -16.83628,75.58647 -13.58756,83.4764 0.95127,2.3103 6.46203,9.10976 12.24626,15.10994 10.25403,10.63693 14.07618,16.78433 15.88631,25.55109 l 0.88822,4.3018 -7.83638,-7.49418 c -4.30998,-4.12178 -9.69356,-8.45459 -11.9636,-9.62847 -5.92608,-3.06449 -15.8344,-3.83212 -21.09461,-1.63427 l -4.32061,1.80528 -5.82408,29.98477 c -10.09592,51.97816 -11.10921,64.58609 -5.88151,73.18223 4.87241,8.01205 20.00109,11.74883 36.95733,9.12846 13.03851,-2.01492 17.53636,-4.46514 18.98819,-10.34387 0.98602,-3.99272 0.72185,-5.56115 -1.70813,-10.1417 -2.71565,-5.11919 -9.19407,-11.91579 -16.05098,-16.8396 -3.06583,-2.20148 -3.05665,-2.20489 4.06797,-1.51699 18.79678,1.81487 38.22299,20.28243 45.69608,43.44099 1.15934,3.59277 2.38685,6.2534 2.72771,5.9125 1.49798,-1.49801 -2.39065,-21.35043 -5.7466,-29.33788 -2.02422,-4.81781 -3.52128,-8.91884 -3.32672,-9.11339 0.65079,-0.65081 9.99274,6.00828 14.73314,10.50207 2.5776,2.44346 5.86341,6.33809 7.302,8.65477 4.29583,6.91825 3.74992,2.59998 -1.63354,-12.92125 -11.00865,-31.73964 -11.3625,-33.23303 -11.47734,-48.44326 -0.10226,-13.46779 0.08,-14.52714 3.83697,-22.46007 7.54821,-15.93531 20.44552,-25.60612 47.06334,-35.28954 18.4491,-6.7117 26.93089,-11.31951 34.43728,-18.70843 8.48861,-8.35572 10.34226,-12.27719 10.33741,-21.86864 0,-9.51399 -2.85121,-15.80773 -10.1182,-22.37304 -11.12272,-10.04873 -24.91926,-15.17469 -38.27137,-14.21935 -9.75165,0.69772 -16.56949,3.58014 -26.83112,11.3434 -9.29646,7.03309 -14.1222,13.72863 -16.9215,23.47761 -2.5148,8.75783 -2.46118,8.68566 -4.92866,6.63782 -3.20361,-2.65873 -6.51014,-10.22007 -7.39888,-16.91942 -0.7642,-5.76098 -0.52559,-6.64966 2.96986,-11.06314 5.21577,-6.5853 6.33276,-10.09197 6.33276,-19.87978 0,-7.652 0.58957,-9.63616 6.45272,-21.7139 l 6.45272,-13.29235 -0.37416,-19.91297 c -0.34664,-18.45128 -0.17686,-20.30243 2.31146,-25.21855 3.31374,-6.54695 7.36611,-12.38993 8.09045,-11.66556 0.29773,0.2978 -0.0852,4.14364 -0.85256,8.54629 -1.14688,6.5857 -1.05681,9.32099 0.50802,15.42903 2.99294,11.68248 9.15409,26.65699 12.41604,30.17666 2.92856,3.16004 3.26182,3.21499 19.50133,3.21499 20.19787,0 30.55888,-2.57507 35.93853,-8.93198 l 3.36264,-3.9734 -0.90408,3.68725 c -1.05983,4.32275 -4.24194,7.9905 -10.41122,12.00008 -17.32595,11.26075 -22.02819,14.75548 -23.46403,17.43842 -2.37517,4.43792 -0.41795,6.08651 11.87171,9.99977 17.14043,5.45785 29.66594,15.33799 36.26838,28.60857 2.41884,4.86169 2.83509,7.59268 2.83509,18.60355 0,11.5401 -0.36119,13.67644 -3.41338,20.194 -7.14874,15.26489 -14.25685,21.32846 -42.77735,36.49145 -21.88909,11.63739 -24.45424,13.45965 -28.33945,20.13227 -2.18194,3.74717 -2.84663,6.70341 -2.7951,12.43108 0.0813,8.98986 0.70978,10.16659 18.34382,34.32274 17.54004,24.02721 20.47109,29.68244 27.36746,52.80194 l 1.09982,3.68725 1.59879,-4.91634 c 3.29486,-10.13188 8.57881,-18.75154 15.13549,-24.68999 7.56119,-6.84825 15.25912,-11.77305 14.05665,-8.99283 -5.55991,12.85533 -8.11208,21.42168 -8.75369,29.38103 -0.80405,9.9778 -0.27401,9.63355 4.23132,-2.74766 4.79559,-13.17885 14.85192,-25.48914 27.07891,-33.14831 4.2544,-2.66504 15.43873,-5.90809 20.10033,-5.8284 l 3.77155,0.0644 -3.07278,2.08643 c -6.26642,4.25504 -13.79733,11.94615 -16.08165,16.42395 -4.97166,9.74527 -2.25745,15.86287 8.45714,19.0613 8.42135,2.51388 28.36463,2.89262 34.75298,0.65997 6.22801,-2.17664 11.78661,-8.44242 13.62886,-15.36302 1.90347,-7.15023 0.37469,-18.98822 -8.4283,-65.26715 l -5.81937,-30.59329 -3.99717,-1.67016 c -10.3049,-4.30563 -20.94162,-0.81099 -33.19089,10.9046 l -8.05597,7.70513 0.88821,-4.30179 c 1.80882,-8.76054 5.56634,-14.75901 16.30847,-26.03507 13.44178,-14.10981 14.49178,-16.67695 12.56995,-30.7314 -2.00141,-14.63762 -8.75344,-45.61115 -18.4373,-84.57807 -15.59501,-62.75292 -24.10826,-91.41112 -28.67377,-96.52563 -2.42644,-2.71813 -3.03043,-2.84518 -7.55358,-1.58893 -3.54501,0.98455 -6.06138,2.88599 -9.02115,6.81666 -2.25771,2.99817 -4.36806,5.18796 -4.68992,4.86617 -1.32531,-1.32538 2.59465,-11.68606 7.83166,-20.69918 l 5.59203,-9.62417 1.20129,-17.518363 c 1.12053,-16.341579 2.48295,-22.066892 4.6928,-19.721355 0.50475,0.535644 5.32944,10.652935 10.72181,22.482867 5.39223,11.829921 21.14744,46.121351 35.01164,76.203181 41.92243,90.96146 125.15469,271.83172 128.10731,278.38741 l 2.76783,6.14541 -39.1857,85.42131 c -21.55212,46.98171 -44.39798,96.7596 -50.76863,110.61751 -51.7121,112.48818 -83.46388,181.67763 -84.32404,183.74798 -0.56165,1.35199 -1.05629,-30.52726 -1.09917,-70.84279 l -0.0774,-73.30095 4.15477,-0.77943 c 5.87206,-1.10161 18.55332,-9.62778 26.54164,-17.84515 3.73484,-3.84189 9.60678,-11.74749 13.04874,-17.56799 l 6.25817,-10.58273 -1.63695,-10.24167 c -4.74183,-29.66666 -5.65457,-37.76917 -6.39005,-56.72573 l -0.80195,-20.67334 -9.9213,4.96935 c -17.35924,8.6949 -28.6246,23.50377 -32.62938,42.89252 -0.86553,4.19059 -1.93782,7.61926 -2.38304,7.61926 -2.03484,0 -3.93726,-19.05443 -3.13741,-31.42541 l 0.83578,-12.92842 -3.96086,2.04825 c -5.65929,2.92654 -16.28159,13.92019 -19.44915,20.12904 -6.80801,13.34478 -7.59384,23.61472 -4.36885,57.09555 4.14689,43.05133 3.92454,43.91203 -21.45528,83.073 -19.9902,30.8446 -24.96934,39.97462 -25.04918,45.93132 -0.0367,2.7916 2.33624,13.37195 5.27464,23.5119 2.93852,10.13993 5.34373,20.40185 5.34491,22.80424 0,4.92893 -1.86624,8.19002 -17.5702,30.66089 -16.71605,23.91935 -17.03424,24.98147 -11.0409,36.85435 4.67602,9.26318 10.12096,15.46164 16.3925,18.66117 4.23526,2.16063 6.61856,2.44635 16.70898,2.00312 13.6286,-0.59862 19.91967,-3.18837 33.06189,-13.60983 l 7.77278,-6.16362 -1.7995,4.17272 c -3.24098,7.5153 -32.40913,72.7718 -36.88759,82.52679 -2.40507,5.23897 -4.70408,9.5254 -5.10879,9.5254 -0.40471,0 -2.29678,-3.4568 -4.20458,-7.68178 z"
       id="path4201"
       inkscape:connector-curvature="0" />
  </g>
</svg>
